<?xml version="1.0" standalone="no"?><svg xmlns="http://www.w3.org/2000/svg" viewBox="0 0 1440 320"><path fill="#a2d9ff" fill-opacity="1" d="M0,192L17.1,208C34.3,224,69,256,103,250.7C137.1,245,171,203,206,160C240,117,274,75,309,85.3C342.9,96,377,160,411,176C445.7,192,480,160,514,165.3C548.6,171,583,213,617,224C651.4,235,686,213,720,192C754.3,171,789,149,823,138.7C857.1,128,891,128,926,154.7C960,181,994,235,1029,213.3C1062.9,192,1097,96,1131,96C1165.7,96,1200,192,1234,197.3C1268.6,203,1303,117,1337,80C1371.4,43,1406,53,1423,58.7L1440,64L1440,320L1422.9,320C1405.7,320,1371,320,1337,320C1302.9,320,1269,320,1234,320C1200,320,1166,320,1131,320C1097.1,320,1063,320,1029,320C994.3,320,960,320,926,320C891.4,320,857,320,823,320C788.6,320,754,320,720,320C685.7,320,651,320,617,320C582.9,320,549,320,514,320C480,320,446,320,411,320C377.1,320,343,320,309,320C274.3,320,240,320,206,320C171.4,320,137,320,103,320C68.6,320,34,320,17,320L0,320Z"></path></svg>